<!DOCTYPE svg PUBLIC "-//W3C//DTD SVG 1.1//EN" "http://www.w3.org/Graphics/SVG/1.1/DTD/svg11.dtd">
<!-- Uploaded to: SVG Repo, www.svgrepo.com, Transformed by: SVG Repo Mixer Tools -->
<svg fill="#ffffff" height="800px" width="800px" version="1.1" id="Layer_1" xmlns="http://www.w3.org/2000/svg" xmlns:xlink="http://www.w3.org/1999/xlink" viewBox="-143 145 512 512" xml:space="preserve" stroke="#ffffff">
<g id="SVGRepo_bgCarrier" stroke-width="0"/>
<g id="SVGRepo_tracerCarrier" stroke-linecap="round" stroke-linejoin="round"/>
<g id="SVGRepo_iconCarrier"> <g> <polygon points="37.1,372.8 113,419.7 188.9,372.8 113,325.9 "/> <path d="M113,145c-141.4,0-256,114.6-256,256s114.6,256,256,256s256-114.6,256-256S254.4,145,113,145z M188.6,474.8L113.1,520 l-75.5-45.2v-16.6L60.2,473l52.9-43.8L166,473l22.6-14.8V474.8z M241,414.5l-75.3,49.1L113,419.7l-52.7,43.9L-15,414.5l52.1-41.7 L-15,331.1L60.3,282l52.7,43.9l52.7-43.9l75.3,49.1l-52.1,41.7L241,414.5z"/> </g> </g>
</svg>